<svg width="37" height="37" viewBox="0 0 37 37" fill="none" xmlns="http://www.w3.org/2000/svg">
<rect x="0.800415" y="0.514404" width="35.7" height="35.7" rx="8.4" fill="white" fill-opacity="0.15"/>
<path d="M23.0312 9.70551L20.8441 9.7019C18.387 9.7019 16.7991 11.3754 16.7991 13.9656V15.9315H14.6001C14.41 15.9315 14.2562 16.0897 14.2562 16.2849V19.1332C14.2562 19.3284 14.4102 19.4865 14.6001 19.4865H16.7991V26.6736C16.7991 26.8688 16.953 27.0269 17.143 27.0269H20.0121C20.2021 27.0269 20.356 26.8687 20.356 26.6736V19.4865H22.9272C23.1172 19.4865 23.2711 19.3284 23.2711 19.1332L23.2721 16.2849C23.2721 16.1912 23.2358 16.1014 23.1714 16.0351C23.107 15.9688 23.0193 15.9315 22.928 15.9315H20.356V14.265C20.356 13.464 20.5418 13.0574 21.5575 13.0574L23.0309 13.0569C23.2207 13.0569 23.3746 12.8986 23.3746 12.7036V10.0588C23.3746 9.86394 23.2209 9.70587 23.0312 9.70551Z" fill="white"/>
</svg>
