<svg width="37" height="37" viewBox="0 0 37 37" fill="none" xmlns="http://www.w3.org/2000/svg">
<rect x="0.800423" y="0.514404" width="35.7" height="35.7" rx="8.4" fill="white" fill-opacity="0.15"/>
<path fill-rule="evenodd" clip-rule="evenodd" d="M10.7754 18.3644C10.7754 16.4109 10.7754 15.4341 11.0093 14.6374C11.563 12.7517 13.0377 11.2771 14.9234 10.7234C15.7201 10.4894 16.6969 10.4894 18.6504 10.4894C20.604 10.4894 21.5807 10.4894 22.3774 10.7234C24.2631 11.2771 25.7378 12.7517 26.2915 14.6374C26.5254 15.4341 26.5254 16.4109 26.5254 18.3644C26.5254 20.318 26.5254 21.2948 26.2915 22.0914C25.7378 23.9771 24.2631 25.4518 22.3774 26.0055C21.5807 26.2394 20.604 26.2394 18.6504 26.2394C16.6969 26.2394 15.7201 26.2394 14.9234 26.0055C13.0377 25.4518 11.563 23.9771 11.0093 22.0914C10.7754 21.2948 10.7754 20.318 10.7754 18.3644ZM18.6504 14.1953C16.348 14.1953 14.4813 16.062 14.4813 18.3644C14.4813 20.6668 16.348 22.5336 18.6504 22.5336C20.9528 22.5336 22.8195 20.6668 22.8195 18.3644C22.8195 16.062 20.9528 14.1953 18.6504 14.1953ZM18.6504 20.9701C17.2141 20.9701 16.0447 19.8007 16.0447 18.3644C16.0447 16.9271 17.2141 15.7587 18.6504 15.7587C20.0867 15.7587 21.2561 16.9271 21.2561 18.3644C21.2561 19.8007 20.0867 20.9701 18.6504 20.9701ZM23.6878 13.8826C23.6878 14.1894 23.439 14.4381 23.1322 14.4381C22.8254 14.4381 22.5767 14.1894 22.5767 13.8826C22.5767 13.5758 22.8254 13.3271 23.1322 13.3271C23.439 13.3271 23.6878 13.5758 23.6878 13.8826Z" fill="white"/>
</svg>
