<svg width="36" height="37" viewBox="0 0 36 37" fill="none" xmlns="http://www.w3.org/2000/svg">
<rect x="0.300415" y="0.514404" width="35.7" height="35.7" rx="8.4" fill="white" fill-opacity="0.15"/>
<path d="M26.0215 26.2394V26.2387H26.0254V20.4624C26.0254 17.6366 25.4171 15.4598 22.1135 15.4598C20.5254 15.4598 19.4596 16.3313 19.0246 17.1575H18.9786V15.7236H15.8463V26.2387H19.1079V21.032C19.1079 19.6611 19.3678 18.3355 21.0655 18.3355C22.7383 18.3355 22.7632 19.9 22.7632 21.1199V26.2394H26.0215Z" fill="white"/>
<path d="M10.5353 15.7243H13.8008V26.2394H10.5353V15.7243Z" fill="white"/>
<path d="M12.1667 10.4894C11.1226 10.4894 10.2754 11.3367 10.2754 12.3808C10.2754 13.4248 11.1226 14.2898 12.1667 14.2898C13.2108 14.2898 14.058 13.4248 14.058 12.3808C14.0574 11.3367 13.2102 10.4894 12.1667 10.4894V10.4894Z" fill="white"/>
</svg>
