<svg width="36" height="37" viewBox="0 0 36 37" fill="none" xmlns="http://www.w3.org/2000/svg">
<rect x="0.300415" y="0.514404" width="35.7" height="35.7" rx="8.4" fill="white" fill-opacity="0.15"/>
<path d="M26.4192 13.4603C25.8105 13.7185 25.1574 13.8936 24.4712 13.9718C25.1719 13.5701 25.7082 12.9329 25.9624 12.1759C25.3052 12.5479 24.5797 12.8181 23.8067 12.9645C23.1877 12.3322 22.3072 11.9384 21.3307 11.9384C19.4571 11.9384 17.938 13.393 17.938 15.1859C17.938 15.4402 17.968 15.6886 18.0259 15.9261C15.2068 15.7905 12.707 14.4973 11.0339 12.5321C10.7414 13.011 10.5751 13.5691 10.5751 14.1648C10.5751 15.2918 11.1744 16.2863 12.0838 16.8681C11.5279 16.8503 11.0049 16.7038 10.5472 16.4604V16.501C10.5472 18.0743 11.717 19.3873 13.2681 19.6862C12.9839 19.7594 12.6842 19.8 12.3742 19.8C12.1551 19.8 11.9433 19.7792 11.7356 19.7396C12.1675 21.0309 13.42 21.9699 14.904 21.9957C13.7435 22.8664 12.2802 23.3839 10.6908 23.3839C10.417 23.3839 10.1472 23.3681 9.88167 23.3394C11.3832 24.2626 13.1658 24.8009 15.0817 24.8009C21.3224 24.8009 24.7337 19.8514 24.7337 15.559L24.7223 15.1385C25.3889 14.6833 25.9655 14.1113 26.4192 13.4603Z" fill="white"/>
</svg>
