<svg width="37" height="37" viewBox="0 0 37 37" fill="none" xmlns="http://www.w3.org/2000/svg">
<rect x="0.800415" y="0.514404" width="35.7" height="35.7" rx="8.4" fill="white" fill-opacity="0.15"/>
<path fill-rule="evenodd" clip-rule="evenodd" d="M26.0453 12.1541C26.8548 12.3722 27.4931 13.0104 27.711 13.82C28.1159 15.2989 28.1003 18.3815 28.1003 18.3815C28.1003 18.3815 28.1003 21.4484 27.7112 22.9274C27.4931 23.7369 26.8549 24.3752 26.0453 24.5931C24.5663 24.9824 18.6504 24.9824 18.6504 24.9824C18.6504 24.9824 12.7499 24.9824 11.2555 24.5777C10.4458 24.3597 9.80762 23.7213 9.5896 22.9118C9.20042 21.4484 9.20042 18.3659 9.20042 18.3659C9.20042 18.3659 9.20042 15.2989 9.5896 13.82C9.80748 13.0105 10.4614 12.3566 11.2553 12.1387C12.7343 11.7494 18.6502 11.7494 18.6502 11.7494C18.6502 11.7494 24.5663 11.7494 26.0453 12.1541ZM21.6861 18.366L16.7666 21.1995V15.5326L21.6861 18.366Z" fill="white"/>
</svg>
